<svg width="20" height="20" viewBox="0 0 20 20" fill="none" xmlns="http://www.w3.org/2000/svg">
<path d="M14.7827 4H0.884C0.396333 4 0 4.39633 0 4.884V19.4713L3.138 16.3333H14.7827C15.2703 16.3333 15.6667 15.9367 15.6667 15.449V4.884C15.6667 4.39633 15.2703 4 14.7827 4ZM3.33333 11.6613C2.598 11.6613 2 11.0633 2 10.328C2 9.59267 2.598 8.99467 3.33333 8.99467C4.06867 8.99467 4.66667 9.59267 4.66667 10.328C4.66667 11.0633 4.06867 11.6613 3.33333 11.6613ZM7.66667 11.6613C6.93133 11.6613 6.33333 11.0633 6.33333 10.328C6.33333 9.59267 6.93133 8.99467 7.66667 8.99467C8.402 8.99467 9 9.59267 9 10.328C9 11.0633 8.402 11.6613 7.66667 11.6613ZM12 11.6613C11.2647 11.6613 10.6667 11.0633 10.6667 10.328C10.6667 9.59267 11.2647 8.99467 12 8.99467C12.7353 8.99467 13.3333 9.59267 13.3333 10.328C13.3333 11.0633 12.7353 11.6613 12 11.6613Z" fill="#CAD6E3"/>
<path d="M19.116 0H4.21733C3.72967 0 3.33333 0.396333 3.33333 0.884V3.33333H14.7827C15.6377 3.33333 16.3333 4.029 16.3333 4.884V13.3333H16.862L20 16.4713V0.884C20 0.396333 19.6037 0 19.116 0Z" fill="#CAD6E3"/>
</svg>
