<svg width="20" height="16" viewBox="0 0 20 16" fill="none" xmlns="http://www.w3.org/2000/svg">
<path d="M19 8.99123H3.414L8.778 14.3081C9.1685 14.6952 9.1685 15.3229 8.77825 15.7097C8.38775 16.0968 7.75425 16.0968 7.36375 15.7097L0.293001 8.70081C0.2465 8.65471 0.205002 8.60392 0.168503 8.54989C0.151752 8.52487 0.140001 8.49785 0.125502 8.47184C0.109001 8.44111 0.0900002 8.41187 0.0767498 8.3794C0.0625 8.34595 0.0545006 8.31126 0.0445004 8.27657C0.0362511 8.24906 0.0255013 8.22279 0.0197525 8.19454C0.00675201 8.13011 0 8.06519 0 8.00002L0.00025177 7.99779C0.000501633 7.9336 0.00700188 7.86917 0.0197525 7.80598C0.0257511 7.77625 0.0370007 7.74874 0.0457516 7.7195C0.0555019 7.68654 0.0630016 7.65309 0.0765018 7.62112C0.0910015 7.58668 0.1105 7.55546 0.1285 7.52299C0.142 7.49871 0.15275 7.47393 0.168251 7.45063C0.20475 7.39587 0.246752 7.34482 0.293501 7.29848L7.364 0.290334C7.7545 -0.0967364 8.38775 -0.0967367 8.77825 0.290086C9.16875 0.677156 9.16875 1.30484 8.77825 1.69216L3.41425 7.0088H19C19.5523 7.0088 20 7.45262 20 8.00002C20 8.54742 19.5523 8.99123 19 8.99123Z" fill="#197CDD"/>
</svg>
