<svg width="20" height="16" viewBox="0 0 20 16" fill="none" xmlns="http://www.w3.org/2000/svg">
<path d="M1 8.99123H16.586L11.222 14.3081C10.8315 14.6952 10.8315 15.3229 11.2217 15.7097C11.6122 16.0968 12.2457 16.0968 12.6362 15.7097L19.707 8.70081C19.7535 8.65471 19.795 8.60392 19.8315 8.54989C19.8482 8.52487 19.86 8.49785 19.8745 8.47184C19.891 8.44111 19.91 8.41187 19.9233 8.3794C19.9375 8.34595 19.9455 8.31126 19.9555 8.27657C19.9637 8.24906 19.9745 8.22279 19.9802 8.19454C19.9932 8.13011 20 8.06519 20 8.00002L19.9997 7.99779C19.9995 7.9336 19.993 7.86917 19.9802 7.80598C19.9742 7.77625 19.963 7.74874 19.9542 7.7195C19.9445 7.68654 19.937 7.65309 19.9235 7.62112C19.909 7.58668 19.8895 7.55546 19.8715 7.52299C19.858 7.49871 19.8472 7.47393 19.8317 7.45063C19.7952 7.39587 19.7532 7.34482 19.7065 7.29848L12.636 0.290334C12.2455 -0.0967364 11.6122 -0.0967367 11.2217 0.290086C10.8312 0.677156 10.8312 1.30484 11.2217 1.69216L16.5857 7.0088H1C0.44775 7.0088 0 7.45262 0 8.00002C0 8.54742 0.44775 8.99123 1 8.99123Z" fill="#197CDD"/>
</svg>
