<svg width="20" height="18" viewBox="0 0 20 18" fill="none" xmlns="http://www.w3.org/2000/svg">
<path d="M19.7881 5.80782L14.0737 0.207865C13.9323 0.0693012 13.765 0 13.5715 0C13.3781 0 13.2106 0.0693012 13.0693 0.207865C12.9279 0.346506 12.8571 0.510584 12.8571 0.700138V3.50012H10.3572C5.05188 3.50012 1.79686 4.96942 0.591329 7.90796C0.197097 8.88492 0 10.0991 0 11.5502C0 12.7605 0.472493 14.4047 1.4174 16.4829C1.43968 16.5341 1.47862 16.6214 1.53452 16.7453C1.59038 16.8692 1.64053 16.9785 1.68517 17.0734C1.72997 17.1681 1.77837 17.2483 1.8304 17.3139C1.9196 17.4379 2.02382 17.5 2.14289 17.5C2.25449 17.5 2.34194 17.4636 2.40523 17.3907C2.46836 17.3178 2.49999 17.2266 2.49999 17.1174C2.49999 17.0516 2.49068 16.9552 2.47204 16.8275C2.45343 16.6998 2.44409 16.6143 2.44409 16.5705C2.40683 16.0749 2.38822 15.6261 2.38822 15.2253C2.38822 14.4889 2.45343 13.829 2.58352 13.2457C2.71381 12.6623 2.89422 12.1574 3.12493 11.7308C3.35561 11.3041 3.65313 10.9361 4.01781 10.6262C4.38233 10.3163 4.77477 10.063 5.19515 9.86606C5.61561 9.66911 6.11039 9.51415 6.67959 9.40118C7.24876 9.28817 7.82164 9.20975 8.39834 9.16596C8.97505 9.12217 9.62795 9.10041 10.3572 9.10041H12.8571V11.9005C12.8571 12.09 12.9278 12.2541 13.0691 12.3926C13.2106 12.531 13.3779 12.6004 13.5713 12.6004C13.7647 12.6004 13.9321 12.531 14.0737 12.3926L19.788 6.79248C19.9294 6.65392 20 6.48991 20 6.30032C20 6.11077 19.9294 5.94665 19.7881 5.80782Z" fill="#CAD6E3"/>
</svg>
