<svg width="19" height="20" viewBox="0 0 19 20" fill="none" xmlns="http://www.w3.org/2000/svg">
<path d="M13.2085 6.89555L11.6339 6.83813L11.2925 16.107L12.8671 16.1642L13.2085 6.89555Z" fill="#94A1B0"/>
<path d="M10.1628 6.86684H8.58719V16.1358H10.1628V6.86684Z" fill="#94A1B0"/>
<path d="M7.45718 16.1068L7.11581 6.83785L5.54121 6.89531L5.88263 16.1642L7.45718 16.1068Z" fill="#94A1B0"/>
<path d="M0 3.00262V4.56918H1.64182L2.9443 19.2854C2.98001 19.6898 3.32064 20 3.72897 20H14.9945C15.4028 20 15.7437 19.6896 15.7791 19.2851L17.0817 4.56918H18.75V3.00262H0ZM14.2729 18.4334H4.45038L3.22348 4.56918H15.5L14.2729 18.4334Z" fill="#94A1B0"/>
<path d="M11.9485 0H6.80146C6.07746 0 5.48845 0.585625 5.48845 1.30547V3.7859H7.06407V1.56656H11.6859V3.7859H13.2616V1.30547C13.2616 0.585625 12.6725 0 11.9485 0Z" fill="#94A1B0"/>
</svg>
