<svg width="16" height="16" viewBox="0 0 16 16" fill="none" xmlns="http://www.w3.org/2000/svg">
<path d="M8 0C3.58203 0 0 3.58203 0 8C0 12.418 3.58203 16 8 16C12.4189 16 16 12.418 16 8C16 3.58203 12.4189 0 8 0ZM10.1816 11.0889C9.78806 11.5303 9.21975 11.7901 8.47656 11.8682V12.8C8.47656 12.9105 8.38702 13 8.27656 13H7.72928C7.61882 13 7.52928 12.9105 7.52928 12.8V11.874C6.35055 11.7533 5.59941 11.0954 5.27425 9.90193C5.24589 9.79785 5.31035 9.69229 5.41473 9.66508L6.48018 9.38735C6.59408 9.35765 6.70785 9.43271 6.73714 9.54672C6.91234 10.2287 7.34664 10.5693 8.04003 10.5693C8.39647 10.5693 8.66016 10.4815 8.82812 10.3047C8.99609 10.1279 9.08006 9.91503 9.08006 9.66503C9.08006 9.40625 8.99606 9.20994 8.82812 9.07712C8.66016 8.94337 8.28613 8.77437 7.70703 8.56931C7.18653 8.38869 6.77928 8.21091 6.48631 8.03322C6.19334 7.85744 5.95506 7.61037 5.77244 7.29297C5.58981 6.97459 5.49803 6.6035 5.49803 6.18162C5.49803 5.62791 5.66209 5.12887 5.98828 4.68553C6.31447 4.24316 6.82812 3.97263 7.52931 3.874V3.2C7.52931 3.08954 7.61886 3 7.72931 3H8.27659C8.38705 3 8.47659 3.08954 8.47659 3.2V3.87403C9.47729 3.99406 10.1446 4.53556 10.4778 5.49938C10.5112 5.59601 10.4605 5.70034 10.3659 5.73914L9.42311 6.12585C9.3169 6.16942 9.19666 6.11445 9.15203 6.00869C8.89763 5.4059 8.52994 5.1045 8.04691 5.1045C7.77931 5.1045 7.56447 5.18653 7.40334 5.35059C7.24122 5.51466 7.16019 5.71388 7.16019 5.94728C7.16019 6.18556 7.23831 6.36819 7.39456 6.49613C7.54984 6.62309 7.88481 6.78031 8.39653 6.96878C8.95903 7.17388 9.40044 7.36819 9.71978 7.55081C10.0401 7.73344 10.295 7.98637 10.4864 8.30766C10.6768 8.62994 10.7725 9.00594 10.7725 9.43659C10.7725 10.0977 10.5752 10.6484 10.1816 11.0889Z" fill="#94A1B0"/>
</svg>
