<svg width="12" height="17" viewBox="0 0 12 17" fill="none" xmlns="http://www.w3.org/2000/svg">
<path d="M5.99975 0C2.69165 0 0 2.8077 0 6.25878C0 7.15896 0.17663 8.01842 0.524719 8.81351C2.02482 12.2376 4.90094 15.8528 5.7469 16.8791C5.81028 16.9558 5.90268 17 5.99992 17C6.09715 17 6.18956 16.9558 6.25294 16.8791C7.09856 15.8529 9.97468 12.238 11.4753 8.81351C11.8235 8.01842 12 7.15896 12 6.25878C11.9997 2.8077 9.30802 0 5.99975 0ZM5.99975 9.50961C4.28132 9.50961 2.88312 8.05113 2.88312 6.25861C2.88312 4.46591 4.28132 3.00743 5.99975 3.00743C7.71818 3.00743 9.11638 4.46591 9.11638 6.25861C9.11654 8.05113 7.71835 9.50961 5.99975 9.50961Z" fill="#94A1B0"/>
</svg>
