<svg width="16" height="16" viewBox="0 0 16 16" fill="none" xmlns="http://www.w3.org/2000/svg">
<path d="M15.2661 14.545H0.727147C0.325453 14.545 1.38099e-05 14.8706 1.38099e-05 15.2729C1.38099e-05 15.6744 0.325453 16 0.727147 16H15.2657C15.6674 16 15.9929 15.6744 15.9929 15.2729C15.9925 14.8706 15.6671 14.545 15.2661 14.545Z" fill="#94A1B0"/>
<path d="M1.63572 12.6538C1.23403 12.6538 0.908589 12.9794 0.908589 13.3813C0.908589 13.7832 1.23403 14.1091 1.63572 14.1091H14.3571C14.7588 14.1091 15.0843 13.7832 15.0843 13.3813C15.0843 12.9794 14.7588 12.6538 14.3571 12.6538H14.1757V6.10781H14.3571C14.5583 6.10781 14.7204 5.94502 14.7204 5.74442C14.7204 5.54381 14.5576 5.38101 14.3571 5.38101H1.63572C1.43488 5.38101 1.2725 5.54381 1.2725 5.74442C1.2725 5.94502 1.43522 6.10781 1.63572 6.10781H1.81751V12.6534L1.63572 12.6538ZM12.7214 6.10781V12.6534H10.5407V6.10781H12.7214ZM9.08645 6.10781V12.6534H6.90573V6.10781H9.08645ZM3.27109 6.10781H5.45181V12.6534H3.27109V6.10781Z" fill="#94A1B0"/>
<path d="M0.727147 4.7271H15.2657C15.2681 4.7271 15.2708 4.7271 15.2729 4.7271C15.6749 4.7271 16 4.4015 16 3.99962C16 3.68015 15.7944 3.40939 15.5088 3.3113L8.29532 0.063859C8.10571 -0.0212863 7.88886 -0.0212863 7.69891 0.063859L0.42894 3.3365C0.116096 3.47751 -0.0558147 3.81741 0.0163539 4.15254C0.0881821 4.48767 0.384346 4.7271 0.727147 4.7271Z" fill="#94A1B0"/>
</svg>
