<svg width="18" height="13" viewBox="0 0 18 13" fill="none" xmlns="http://www.w3.org/2000/svg">
<path d="M17.8252 4.69266C17.9319 4.64262 18 4.53542 18 4.41761C18 4.29979 17.9319 4.1926 17.8252 4.14255L9.84558 0.398585C9.30738 0.146068 8.68474 0.146067 8.14654 0.398582L0.178118 4.13725C0.0694169 4.18825 0 4.2975 0 4.41757C0 4.53764 0.0694153 4.64689 0.178115 4.69789L8.57129 8.63595C8.8404 8.76221 9.15172 8.76221 9.42082 8.63595L17.8252 4.69266Z" fill="#94A1B0"/>
<path d="M3.11679 6.84659V8.8459C3.11679 9.16488 3.30628 9.45337 3.59902 9.58008L8.21158 11.5765C8.71264 11.7934 9.27901 11.7967 9.78136 11.5829C10.9325 11.0928 13.0856 10.1697 14.4184 9.55791C14.6991 9.42908 14.8754 9.14816 14.8754 8.83934V6.84655L9.42081 9.40574C9.15172 9.532 8.8404 9.532 8.5713 9.40575L3.11679 6.84659Z" fill="#94A1B0"/>
<path d="M17.0517 10.7089V5.79712L16.3396 6.14689V10.7089L15.8756 12.0856L16.577 13H16.8143L17.5156 12.0856L17.0517 10.7089Z" fill="#94A1B0"/>
</svg>
