<svg width="16" height="17" viewBox="0 0 16 17" fill="none" xmlns="http://www.w3.org/2000/svg">
<path d="M14.8095 2.0568H13.5V1.17478C13.5 0.525972 12.967 0 12.3095 0H12.2619C11.6044 0 11.0714 0.525972 11.0714 1.17478V2.0568H4.92857V1.17478C4.92857 0.525972 4.39557 0 3.7381 0H3.69048C3.033 0 2.5 0.525972 2.5 1.17478V2.0568H1.19048C0.533 2.0568 0 2.58278 0 3.23158V15.8252C0 16.4741 0.533 17 1.19048 17H14.8095C15.467 17 16 16.4741 16 15.8252V3.23158C16 2.58278 15.467 2.0568 14.8095 2.0568ZM14 15.1438H2V5.60464H14V15.1438Z" fill="#94A1B0"/>
<path d="M3.631 9.92144H5.70233C5.80752 9.92144 5.89281 9.83728 5.89281 9.73347V7.68945C5.89281 7.58565 5.80752 7.50148 5.70233 7.50148H3.631C3.52581 7.50148 3.44052 7.58565 3.44052 7.68945V9.73347C3.44052 9.83728 3.52581 9.92144 3.631 9.92144Z" fill="#94A1B0"/>
<path d="M6.96433 9.92144H9.03567C9.14086 9.92144 9.22614 9.83728 9.22614 9.73347V7.68945C9.22614 7.58565 9.14086 7.50148 9.03567 7.50148H6.96433C6.85914 7.50148 6.77386 7.58565 6.77386 7.68945V9.73347C6.77386 9.83728 6.85914 9.92144 6.96433 9.92144Z" fill="#94A1B0"/>
<path d="M10.2977 9.92144H12.369C12.4742 9.92144 12.5595 9.83728 12.5595 9.73347V7.68945C12.5595 7.58565 12.4742 7.50148 12.369 7.50148H10.2977C10.1925 7.50148 10.1072 7.58565 10.1072 7.68945V9.73347C10.1072 9.83728 10.1925 9.92144 10.2977 9.92144Z" fill="#94A1B0"/>
<path d="M3.631 13.2108H5.70233C5.80752 13.2108 5.89281 13.1267 5.89281 13.0229V10.9788C5.89281 10.875 5.80752 10.7909 5.70233 10.7909H3.631C3.52581 10.7909 3.44052 10.875 3.44052 10.9788V13.0229C3.44052 13.1267 3.52581 13.2108 3.631 13.2108Z" fill="#94A1B0"/>
<path d="M6.96433 13.2108H9.03567C9.14086 13.2108 9.22614 13.1267 9.22614 13.0229V10.9788C9.22614 10.875 9.14086 10.7909 9.03567 10.7909H6.96433C6.85914 10.7909 6.77386 10.875 6.77386 10.9788V13.0229C6.77386 13.1267 6.85914 13.2108 6.96433 13.2108Z" fill="#94A1B0"/>
<path d="M10.2977 13.2108H12.369C12.4742 13.2108 12.5595 13.1267 12.5595 13.0229V10.9788C12.5595 10.875 12.4742 10.7909 12.369 10.7909H10.2977C10.1925 10.7909 10.1072 10.875 10.1072 10.9788V13.0229C10.1072 13.1267 10.1925 13.2108 10.2977 13.2108Z" fill="#94A1B0"/>
</svg>
