<svg width="13" height="12" viewBox="0 0 13 12" fill="none" xmlns="http://www.w3.org/2000/svg">
<path d="M11.9115 0H7.78535C7.37749 0 7.04571 0.331824 7.04571 0.73964C7.04571 1.14746 7.37749 1.47928 7.78535 1.47928H10.1259L6.22162 5.38348C6.08185 5.52316 6.00493 5.70888 6.00493 5.90651C6.00493 6.10414 6.08181 6.28981 6.22154 6.42937C6.36127 6.56923 6.54694 6.64619 6.74457 6.64619C6.94212 6.64619 7.12787 6.56927 7.26764 6.4295L11.1718 2.52526V4.86577C11.1718 5.27359 11.5037 5.60541 11.9115 5.60541C12.3193 5.60541 12.6511 5.27359 12.6511 4.86577V0.73964C12.6511 0.331824 12.3193 0 11.9115 0Z" fill="white"/>
<path d="M9.1522 10.732H1.91908V3.49892H7.35906L8.62702 2.23096H1.2851C0.934976 2.23096 0.651123 2.51482 0.651123 2.86494V11.366C0.651123 11.7161 0.934976 12 1.2851 12H9.78618C10.1363 12 10.4202 11.7161 10.4202 11.366V4.02411L9.1522 5.29206V10.732Z" fill="white"/>
</svg>
