<svg width="17" height="13" viewBox="0 0 17 13" fill="none" xmlns="http://www.w3.org/2000/svg">
<path d="M2.60049 5.72615e-05C2.60004 5.72615e-05 2.59952 5.72615e-05 2.59906 5.72615e-05C2.43828 5.72615e-05 2.28705 0.062793 2.17286 0.176806C2.05741 0.292079 1.99381 0.445567 1.99381 0.608967V9.73946C1.99381 10.0743 2.26702 10.3473 2.6029 10.3482C4.01888 10.3516 6.39122 10.647 8.02781 12.3612V2.80592C8.02781 2.69243 7.99884 2.5858 7.94418 2.49757C6.60095 0.332356 4.01968 0.00338025 2.60049 5.72615e-05Z" fill="#94A1B0"/>
<path d="M15.0062 9.73946V0.608909C15.0062 0.44551 14.9427 0.292022 14.8272 0.176749C14.713 0.0627357 14.5617 0 14.4011 0C14.4005 0 14.4 0 14.3996 0C12.9804 0.00338028 10.3992 0.332356 9.05588 2.49757C9.00122 2.5858 8.97231 2.69243 8.97231 2.80592V12.3612C10.6089 10.6469 12.9812 10.3515 14.3972 10.3481C14.733 10.3473 15.0062 10.0742 15.0062 9.73946Z" fill="#94A1B0"/>
<path d="M16.3918 2.10569H15.9507V9.73946C15.9507 10.5943 15.2548 11.2914 14.3994 11.2935C13.1984 11.2964 11.218 11.5315 9.8155 12.8601C12.2412 12.2657 14.7983 12.6521 16.2556 12.9845C16.4376 13.026 16.6256 12.9832 16.7714 12.8669C16.9167 12.7508 17 12.5774 17 12.3913V2.71448C17.0001 2.3788 16.7271 2.10569 16.3918 2.10569Z" fill="#94A1B0"/>
<path d="M1.04931 9.73946V2.10569H0.608224C0.272917 2.10569 0 2.3788 0 2.71448V12.3911C0 12.5773 0.0833403 12.7507 0.228614 12.8667C0.374287 12.9829 0.562147 13.026 0.744397 12.9844C2.20171 12.6519 4.75887 12.2655 7.18444 12.86C5.78197 11.5314 3.8016 11.2963 2.60055 11.2935C1.74522 11.2914 1.04931 10.5943 1.04931 9.73946Z" fill="#94A1B0"/>
</svg>
