<svg width="128" height="128" viewBox="0 0 128 128" fill="none" xmlns="http://www.w3.org/2000/svg">
<g opacity="0.1">
<path d="M114.666 42.6672V56.0003L111.999 58.667H106.666V42.6672H114.666Z" fill="#278CEF"/>
<path d="M64 45.3339L13.3339 24.0006L64.0002 2.66748L114.667 24.0006L64 45.3339Z" fill="#278CEF"/>
<path d="M64.0002 66.667C30.127 66.667 2.66748 94.1265 2.66748 128H125.333C125.333 94.1268 97.8735 66.667 64.0002 66.667Z" fill="#278CEF"/>
</g>
<path d="M12.2991 26.4593L26.667 32.51V64.0005H32.0002V34.7552L61.3332 47.1044V56.0003H66.6664V47.1046L95.9995 34.7555V64.0005H101.333V32.51L111.999 28.0168V40.0007H106.666C105.193 40.0007 103.999 41.1947 103.999 42.6674V58.6673C103.999 60.14 105.193 61.334 106.666 61.334H111.999C112.707 61.3338 113.385 61.0528 113.885 60.5528L116.551 57.8861C117.052 57.3861 117.333 56.7078 117.333 56.0008V24.0011C117.333 22.9278 116.69 21.9588 115.701 21.5423L65.035 0.208995C64.3732 -0.0695024 63.6272 -0.0695024 62.9657 0.208995L12.2991 21.5421C10.9411 22.1123 10.3026 23.6753 10.8729 25.0333C11.1434 25.6771 11.6554 26.189 12.2991 26.4593ZM112 54.8966L110.896 56.0006H109.333V45.3339H112V54.8966ZM64.0002 5.56095L107.795 24.0008L64.0002 42.4407L20.2058 24.0008L64.0002 5.56095Z" fill="url(#paint0_linear)"/>
<path d="M58.6667 21.3341H69.3334V26.6673H58.6667V21.3341Z" fill="url(#paint1_linear)"/>
<path d="M122.666 128H128C128 92.654 99.346 64.0005 64 64.0005C28.654 64.0005 0.000488281 92.654 0.000488281 128H5.3337C5.33445 122.589 6.08744 117.204 7.57093 112H35.64C34.98 117.308 34.6547 122.652 34.6667 128H39.9999C39.9829 122.65 40.3259 117.304 41.0267 112H61.3333V128H66.6665V112H89.6503C90.3445 117.305 90.684 122.65 90.6663 128H95.9995C96.0113 122.652 95.6863 117.308 95.0263 112H120.429C121.913 117.204 122.666 122.589 122.666 128ZM9.36592 106.667C16.9086 87.4373 33.982 73.5714 54.3496 70.1337C48.0004 76.0004 39.9444 87.0136 36.4325 106.667H9.36592ZM41.9124 106.667C46.0536 85.2561 55.9336 75.3309 61.3335 71.3817V106.667H41.9124ZM66.6667 106.667V69.627C70.3839 71.6429 83.7946 80.6161 88.7786 106.667H66.6667ZM94.2348 106.667C90.856 87.7496 83.2616 76.8322 77.0456 70.8137C95.9738 75.1732 111.534 88.5876 118.635 106.667H94.2348Z" fill="url(#paint2_linear)"/>
<defs>
<linearGradient id="paint0_linear" x1="64" y1="0.00012207" x2="64" y2="128" gradientUnits="userSpaceOnUse">
<stop stop-color="#31A5F9"/>
<stop offset="1" stop-color="#1A7DDE"/>
</linearGradient>
<linearGradient id="paint1_linear" x1="64" y1="0.00012207" x2="64" y2="128" gradientUnits="userSpaceOnUse">
<stop stop-color="#31A5F9"/>
<stop offset="1" stop-color="#1A7DDE"/>
</linearGradient>
<linearGradient id="paint2_linear" x1="64" y1="0.00012207" x2="64" y2="128" gradientUnits="userSpaceOnUse">
<stop stop-color="#31A5F9"/>
<stop offset="1" stop-color="#1A7DDE"/>
</linearGradient>
</defs>
</svg>
