<svg width="28" height="31" viewBox="0 0 28 31" fill="none" xmlns="http://www.w3.org/2000/svg">
<path fill-rule="evenodd" clip-rule="evenodd" d="M14.1903 23.9708C11.9156 23.9708 10.0717 22.1295 10.0717 19.8582C10.0717 17.5868 11.9156 15.7455 14.1903 15.7455C16.4649 15.7455 18.3089 17.5868 18.3089 19.8582C18.3089 22.1295 16.4649 23.9708 14.1903 23.9708ZM14.1903 28.0835C9.641 28.0835 5.95308 24.4009 5.95308 19.8582C5.95308 15.3154 9.641 11.6328 14.1903 11.6328C18.7396 11.6328 22.4275 15.3154 22.4275 19.8582C22.4275 24.4009 18.7396 28.0835 14.1903 28.0835Z" fill="#48AFED"/>
<path d="M10.9047 26.1298C11.1728 25.8621 11.1728 25.4281 10.9047 25.1604L8.96321 23.2217C8.69514 22.954 8.26051 22.954 7.99245 23.2217L3.55546 27.6523C3.28739 27.92 3.28739 28.354 3.55546 28.6217L5.49698 30.5604C5.76505 30.8281 6.19968 30.8281 6.46775 30.5604L10.9047 26.1298Z" fill="#48AFED"/>
<path d="M27.2489 12.168C27.5924 11.8936 27.5924 11.3719 27.2489 11.0975L14.6191 1.00819C14.3684 0.807919 14.0122 0.807919 13.7615 1.00819L1.13165 11.0975C0.78815 11.3719 0.788149 11.8936 1.13165 12.168L5.53409 15.6849C7.0887 12.4755 10.3806 10.2619 14.1903 10.2619C18 10.2619 21.2919 12.4755 22.8465 15.6849L27.2489 12.168Z" fill="#48AFED"/>
<path fill-rule="evenodd" clip-rule="evenodd" d="M24.7614 19.8582V13.0037H25.8597V19.8582H24.7614Z" fill="#48AFED"/>
<path fill-rule="evenodd" clip-rule="evenodd" d="M23.6631 22.0516L24.7614 19.8582H25.8597L26.958 22.0516H23.6631Z" fill="#48AFED"/>
</svg>
