<svg width="24" height="24" viewBox="0 0 24 24" fill="none" xmlns="http://www.w3.org/2000/svg">
<path d="M11.5781 10.9219C9.2002 10.9219 7.26562 12.8565 7.26562 15.2344C7.26562 16.5162 7.82803 17.669 8.71875 18.4596V23.0617C8.71875 23.3762 8.87648 23.6699 9.13884 23.8434C9.4013 24.0172 9.73312 24.0475 10.0226 23.9246L11.5311 23.2842L13.0395 23.9253C13.1573 23.9753 13.282 24 13.4062 24C13.5875 24 13.7678 23.9474 13.9235 23.8444C14.1859 23.6708 14.3438 23.3771 14.3438 23.0625V18.5405C15.2887 17.7488 15.8906 16.5607 15.8906 15.2344C15.8906 12.8565 13.956 10.9219 11.5781 10.9219ZM12.4688 21.6454L11.898 21.4028C11.6638 21.3033 11.3992 21.3032 11.1648 21.4027L10.5938 21.6452V19.4334C10.9101 19.5075 11.2395 19.5469 11.5781 19.5469C11.8834 19.5469 12.1813 19.5148 12.4688 19.4542V21.6454ZM11.5781 17.6719C10.2341 17.6719 9.14062 16.5784 9.14062 15.2344C9.14062 13.8903 10.2341 12.7969 11.5781 12.7969C12.9222 12.7969 14.0156 13.8903 14.0156 15.2344C14.0156 16.5784 12.9222 17.6719 11.5781 17.6719Z" fill="#197CDD"/>
<path d="M23.0625 14.2552H19.7812V3.01233C19.7812 1.35131 18.4299 0 16.7689 0H3.75C1.68225 0 0 1.68225 0 3.75V5.66667C0 6.18445 0.419719 6.60417 0.9375 6.60417H3.28125V17.2969C3.28125 18.8179 4.18884 20.1777 5.5935 20.7611C5.71111 20.8099 5.83284 20.833 5.95275 20.833C6.3203 20.833 6.66909 20.6155 6.81891 20.2549C7.01752 19.7768 6.79092 19.2281 6.31275 19.0295C5.61023 18.7377 5.15625 18.0576 5.15625 17.2969V6.60417H14.625C15.1428 6.60417 15.5625 6.18445 15.5625 5.66667V3.01233C15.5625 2.38519 16.0727 1.875 16.6998 1.875H16.769C17.3961 1.875 17.9062 2.38519 17.9062 3.01233V18.0346C17.9062 18.4369 17.9861 18.8207 18.1299 19.1719H17.1562C16.6385 19.1719 16.2188 19.5916 16.2188 20.1094C16.2188 20.6272 16.6385 21.0469 17.1562 21.0469H21C21.0042 21.0469 21.0082 21.0464 21.0125 21.0463C22.662 21.0328 24 19.6873 24 18.0345V15.1927C24 14.6749 23.5803 14.2552 23.0625 14.2552ZM13.6875 3.01233V4.72917H1.875V3.75C1.875 2.71613 2.71613 1.875 3.75 1.875H13.9104C13.7667 2.22605 13.6875 2.61014 13.6875 3.01233ZM22.125 18.0345C22.125 18.6617 21.6148 19.1719 20.9877 19.1719H20.9185C20.2914 19.1719 19.7812 18.6617 19.7812 18.0345V16.1302H22.125V18.0345Z" fill="#197CDD"/>
</svg>
