<svg width="21" height="24" viewBox="0 0 21 24" fill="none" xmlns="http://www.w3.org/2000/svg">
<path d="M20.1959 20.95C20.0896 20.4431 19.5887 20.1173 19.0771 20.2227C18.5654 20.3279 18.2367 20.8242 18.3429 21.3312C18.3845 21.5295 18.3337 21.7341 18.2037 21.8924C18.1323 21.9793 17.9748 22.125 17.7209 22.125H11.437L13.9922 15.6513C14.9227 16.129 15.7642 16.7803 16.4658 17.5826C16.808 17.9739 17.4056 18.0163 17.8006 17.6773C18.1956 17.3383 18.2383 16.7461 17.8962 16.3548C16.7343 15.0262 15.2599 14.0351 13.6265 13.4505C14.8116 12.4609 15.5659 10.9802 15.5659 9.32808C15.5659 8.35763 15.3087 7.42697 14.8267 6.61149L17.7423 5.54715V10.1719C17.7423 10.6897 18.1659 11.1094 18.6885 11.1094C19.2111 11.1094 19.6348 10.6897 19.6348 10.1719V4.26563C19.6348 4.2564 19.6336 4.2474 19.6334 4.23821C19.6338 4.22635 19.6348 4.21454 19.6348 4.20258V4.14985C19.6348 3.76051 19.3919 3.41166 19.0245 3.27343L10.4877 0.061085C10.2722 -0.0200087 10.0342 -0.0203837 9.81836 0.0601007L1.22804 3.26372C0.859287 3.40126 0.615155 3.75076 0.615155 4.14113V4.19387C0.615155 4.58747 0.863308 4.93918 1.23641 5.07436L5.43302 6.59476C4.94466 7.41394 4.68397 8.35032 4.68397 9.32813C4.68397 10.9821 5.43998 12.4642 6.62728 13.4538C5.53115 13.8473 4.50229 14.4247 3.59304 15.1678C1.78528 16.6453 0.528431 18.706 0.0539354 20.9705C-0.102763 21.7184 0.085682 22.4862 0.571012 23.0771C1.05275 23.6636 1.76641 24 2.52899 24H17.7209C18.4782 24 19.1892 23.6632 19.6716 23.0759C20.1626 22.478 20.3537 21.7032 20.1959 20.95ZM4.2099 4.15515L10.1502 1.93979L16.0592 4.16335L13.3972 5.13516C12.4672 4.70724 11.0218 4.63027 10.1354 4.6283C9.24872 4.62535 7.80224 4.69637 6.87198 5.1196L4.2099 4.15515ZM6.57651 9.32813C6.57651 8.38618 6.94739 7.50315 7.6206 6.83851C7.80337 6.72793 8.64378 6.50326 10.0998 6.50326C10.1108 6.50326 10.1221 6.50326 10.1332 6.50326C11.6107 6.50672 12.4604 6.73899 12.6427 6.85154C13.3073 7.51458 13.6734 8.39302 13.6734 9.32808C13.6734 11.2666 12.0815 12.8437 10.1249 12.8437C8.16834 12.8437 6.57651 11.2666 6.57651 9.32813ZM2.52899 22.125C2.26792 22.125 2.10989 21.9801 2.03897 21.8937C1.96592 21.8047 1.85162 21.616 1.90697 21.3517C2.43162 18.8477 4.08159 16.7914 6.26184 15.662L8.81287 22.125H2.52899ZM8.02711 14.986C8.70122 14.8116 9.4047 14.7188 10.1249 14.7188C10.8407 14.7188 11.5453 14.8094 12.2241 14.9825L10.1249 20.3009L8.02711 14.986Z" fill="#197CDD"/>
</svg>
