<svg width="24" height="24" viewBox="0 0 24 24" fill="none" xmlns="http://www.w3.org/2000/svg">
<path d="M24 18.75C24 15.0113 23.6865 11.5298 23.0681 8.40216C22.4709 5.38116 21.7897 3.70584 21.5245 3.12581C20.6164 1.13934 19.1609 0 17.5312 0C15.9804 0 14.7188 1.26169 14.7188 2.8125C14.7188 3.33028 15.1385 3.75 15.6562 3.75C16.174 3.75 16.5938 3.33028 16.5938 2.8125C16.5938 2.29556 17.0143 1.875 17.5312 1.875C18.3954 1.875 19.2294 2.61506 19.8193 3.90539C20.0198 4.34391 21.543 7.8758 21.9973 14.7672C21.1249 14.0908 20.0306 13.6875 18.8438 13.6875C16.7326 13.6875 14.9141 14.9629 14.1174 16.7836C13.5853 16.5497 12.8707 16.3594 11.9531 16.3594C11.0686 16.3594 10.3853 16.5372 9.87323 16.7624C9.07177 14.9531 7.25916 13.6875 5.15625 13.6875C3.97603 13.6875 2.88745 14.0864 2.01745 14.7559C2.40867 9.24544 3.51778 5.45817 4.22766 3.90539C4.81748 2.61506 5.65144 1.875 6.51562 1.875C7.03256 1.875 7.45312 2.29556 7.45312 2.8125C7.45312 3.33028 7.87284 3.75 8.39062 3.75C8.90841 3.75 9.32812 3.33028 9.32812 2.8125C9.32812 1.26169 8.06644 0 6.51562 0C4.88597 0 3.4305 1.13934 2.52239 3.12586C2.31347 3.58284 1.58316 5.31703 0.955781 8.44664C0.321562 11.6104 0 15.1086 0 18.8438C0 21.6869 2.31309 24 5.15625 24C7.99941 24 10.3125 21.6869 10.3125 18.8438C10.3125 18.7793 10.3109 18.7154 10.3086 18.6515C10.5637 18.4784 11.0783 18.2344 11.9531 18.2344C12.8479 18.2344 13.4051 18.4899 13.6906 18.6742C13.6888 18.7305 13.6875 18.787 13.6875 18.8438C13.6875 21.6869 16.0006 24 18.8438 24C19.6863 24 20.5227 23.792 21.2625 23.3985C21.7196 23.1553 21.8931 22.5876 21.6499 22.1305C21.4067 21.6734 20.8391 21.4999 20.382 21.7431C19.9055 21.9965 19.388 22.125 18.8438 22.125C17.0345 22.125 15.5625 20.653 15.5625 18.8438C15.5625 17.0345 17.0345 15.5625 18.8438 15.5625C20.653 15.5625 22.125 17.0345 22.125 18.8438C22.125 19.3615 22.5447 19.7812 23.0625 19.7812C23.5803 19.7812 24 19.3615 24 18.8438C24 18.8187 23.9994 18.7938 23.999 18.7688C23.9992 18.7625 24 18.7564 24 18.75ZM5.15625 22.125C3.34697 22.125 1.875 20.653 1.875 18.8438C1.875 17.0345 3.34697 15.5625 5.15625 15.5625C6.96553 15.5625 8.4375 17.0345 8.4375 18.8438C8.4375 20.653 6.96553 22.125 5.15625 22.125Z" fill="#197CDD"/>
</svg>
