<svg width="24" height="24" viewBox="0 0 24 24" fill="none" xmlns="http://www.w3.org/2000/svg">
<path d="M6.14023 8.90623C6.65797 8.90623 7.07768 8.48649 7.07768 7.96871C7.07768 7.45093 6.65797 7.03119 6.14023 7.03119C5.62248 7.03119 5.20277 7.45093 5.20277 7.96871C5.20277 8.48649 5.62248 8.90623 6.14023 8.90623Z" fill="#197CDD"/>
<path d="M9.79619 10.8281C10.3139 10.8281 10.7336 10.4084 10.7336 9.8906C10.7336 9.37282 10.3139 8.95308 9.79619 8.95308C9.27845 8.95308 8.85874 9.37282 8.85874 9.8906C8.85874 10.4084 9.27845 10.8281 9.79619 10.8281Z" fill="#197CDD"/>
<path d="M6.93702 12.75C7.45476 12.75 7.87448 12.3303 7.87448 11.8125C7.87448 11.2947 7.45476 10.875 6.93702 10.875C6.41927 10.875 5.99956 11.2947 5.99956 11.8125C5.99956 12.3303 6.41927 12.75 6.93702 12.75Z" fill="#197CDD"/>
<path d="M23.6001 18.5545C23.4019 18.2284 23.0366 18.067 22.6811 18.1119C22.622 18.1002 22.561 18.0938 22.4984 18.0938H15.8339C16.025 17.4004 16.1238 16.6767 16.1238 15.9375C16.1238 14.4958 15.7296 13.1195 15.0313 11.9246C15.0402 11.8728 15.0458 11.8199 15.0458 11.7656V4.64062H16.9675V11.7656C16.9675 11.952 17.0231 12.1342 17.1272 12.2889L19.6181 15.992C19.799 16.2611 20.0951 16.4063 20.3967 16.4063C20.5767 16.4063 20.7586 16.3545 20.9191 16.2466C21.3487 15.9576 21.4627 15.375 21.1737 14.9454L18.8425 11.4796V4.63828C19.3383 4.61371 19.7331 4.20512 19.7331 3.70315C19.7331 3.18538 19.3134 2.76563 18.7956 2.76563H13.2178C12.7001 2.76563 12.2804 3.18533 12.2804 3.70315C12.2804 4.20508 12.6751 4.61371 13.171 4.63828V9.74061C12.4812 9.17225 11.6923 8.71116 10.8274 8.38831V1.87504H10.8743C11.392 1.87504 11.8117 1.45534 11.8117 0.937519C11.8117 0.419701 11.392 0 10.8743 0H5.06213C4.5444 0 4.12468 0.419701 4.12468 0.937519C4.12468 1.45534 4.54435 1.87504 5.06213 1.87504H5.20276V8.38929C2.07863 9.56491 -0.0280766 12.5998 0.000282845 16.0059C0.0179079 18.1278 0.859737 20.1274 2.37052 21.6364C3.86621 23.1303 5.8418 23.9673 7.9397 23.9985C7.94926 23.9988 7.95854 24 7.96815 24H19.9752C20.7066 24 21.3941 23.7152 21.9114 23.198L23.1962 21.913C24.0915 21.0177 24.2576 19.6366 23.6001 18.5545ZM8.06213 22.1251C8.04713 22.1251 8.03199 22.1251 8.01699 22.125C5.43151 22.1065 3.20391 20.4715 2.30241 18.1875H3.4216C3.93933 18.1875 4.35905 17.7678 4.35905 17.25C4.35905 16.7322 3.93938 16.3125 3.4216 16.3125H1.88625C1.87978 16.2057 1.87594 16.0983 1.87505 15.9902C1.85171 13.1874 3.70815 10.713 6.38954 9.97275C6.79599 9.86052 7.07757 9.49075 7.07757 9.06903V1.87504H8.95243V9.06917C8.95243 9.49084 9.23401 9.86066 9.64046 9.97289C12.3539 10.7219 14.2489 13.1747 14.2489 15.9376C14.2489 16.0633 14.2448 16.1882 14.2374 16.3126H8.9056C8.38787 16.3126 7.96815 16.7323 7.96815 17.2501C7.96815 17.7679 8.38782 18.1876 8.9056 18.1876H13.8291C13.5196 18.9816 13.0445 19.7095 12.4212 20.3284C11.2533 21.488 9.70693 22.1251 8.06213 22.1251ZM21.8705 20.5872L20.5857 21.8721C20.4226 22.0352 20.2059 22.1251 19.9752 22.1251H13.2307C13.4066 21.9776 13.5775 21.8225 13.7422 21.6589C14.2569 21.1478 14.6936 20.5797 15.0475 19.9688H22.1231C22.1254 20.1944 22.0395 20.4182 21.8705 20.5872Z" fill="#197CDD"/>
</svg>
