<svg width="21" height="24" viewBox="0 0 21 24" fill="none" xmlns="http://www.w3.org/2000/svg">
<path d="M14.6941 10.3125C14.6941 9.79472 14.2904 9.375 13.7923 9.375H4.50396C4.00591 9.375 3.60218 9.79472 3.60218 10.3125C3.60218 10.8303 4.00591 11.25 4.50396 11.25H13.7923C14.2904 11.25 14.6941 10.8303 14.6941 10.3125Z" fill="#197CDD"/>
<path d="M4.50396 13.125C4.00591 13.125 3.60218 13.5447 3.60218 14.0625C3.60218 14.5803 4.00591 15 4.50396 15H10.1451C10.6432 15 11.0469 14.5803 11.0469 14.0625C11.0469 13.5447 10.6432 13.125 10.1451 13.125H4.50396Z" fill="#197CDD"/>
<path d="M6.6231 22.125H3.60713C2.61264 22.125 1.80357 21.2839 1.80357 20.25V3.75C1.80357 2.71613 2.61264 1.875 3.60713 1.875H14.6941C15.6885 1.875 16.4976 2.71613 16.4976 3.75V9.51562C16.4976 10.0334 16.9013 10.4531 17.3994 10.4531C17.8975 10.4531 18.3012 10.0334 18.3012 9.51562V3.75C18.3012 1.68225 16.683 0 14.6941 0H3.60713C1.61816 0 0 1.68225 0 3.75V20.25C0 22.3177 1.61816 24 3.60713 24H6.6231C7.12115 24 7.52488 23.5803 7.52488 23.0625C7.52488 22.5447 7.12115 22.125 6.6231 22.125Z" fill="#197CDD"/>
<path d="M19.8985 13.5736C18.8437 12.477 17.1274 12.477 16.0733 13.5729L11.1224 18.7085C11.0172 18.8176 10.9397 18.9519 10.8965 19.0997L9.81824 22.7899C9.72265 23.1171 9.80593 23.4724 10.0356 23.7171C10.2077 23.9004 10.4414 23.9999 10.6812 23.9999C10.7614 23.9999 10.8424 23.9888 10.9218 23.9659L14.5617 22.9177C14.7115 22.8746 14.848 22.7919 14.958 22.6777L19.8985 17.5512C20.9534 16.4546 20.9534 14.6703 19.8985 13.5736ZM13.8517 21.1766L12.0205 21.7039L12.5564 19.8697L15.897 16.4045L17.1726 17.7306L13.8517 21.1766ZM18.6239 16.2248L18.4492 16.4061L17.1738 15.0802L17.3479 14.8995C17.6996 14.534 18.2716 14.534 18.6232 14.8995C18.9749 15.2651 18.9749 15.8598 18.6239 16.2248Z" fill="#197CDD"/>
<path d="M13.7923 5.625H4.50396C4.00591 5.625 3.60218 6.04472 3.60218 6.5625C3.60218 7.08028 4.00591 7.5 4.50396 7.5H13.7923C14.2904 7.5 14.6941 7.08028 14.6941 6.5625C14.6941 6.04472 14.2904 5.625 13.7923 5.625Z" fill="#197CDD"/>
</svg>
