<svg width="24" height="24" viewBox="0 0 24 24" fill="none" xmlns="http://www.w3.org/2000/svg">
<path d="M23.0625 19.3125C22.5447 19.3125 22.125 19.7322 22.125 20.25C22.125 21.2839 21.2839 22.125 20.25 22.125H3.75C2.71613 22.125 1.875 21.2839 1.875 20.25V11.7949C1.89211 11.808 1.90847 11.8209 1.92586 11.834C1.94559 11.8489 1.96589 11.863 1.9867 11.8763L5.625 14.1974V15.4219C5.625 15.9397 6.04472 16.3594 6.5625 16.3594C7.08028 16.3594 7.5 15.9397 7.5 15.4219V14.0541L8.2177 13.6486C8.22089 13.6468 8.22408 13.645 8.22727 13.6432C10.5614 12.288 13.4699 12.2711 15.8195 13.5984L16.5 13.9981V15.4219C16.5 15.9397 16.9197 16.3594 17.4375 16.3594C17.9553 16.3594 18.375 15.9397 18.375 15.4219V14.1974L22.0133 11.8763C22.0341 11.863 22.0544 11.8489 22.0741 11.834C22.0915 11.8209 22.1079 11.808 22.125 11.7949V15.5174C22.125 16.0351 22.5447 16.4549 23.0625 16.4549C23.5802 16.4549 24 16.0351 24 15.5174V7.5C24 5.43225 22.3178 3.75 20.25 3.75H16.2153V2.8125C16.2153 1.26169 14.9536 0 13.4028 0H10.5972C9.04641 0 7.78472 1.26169 7.78472 2.8125V3.75H3.75C1.68225 3.75 0 5.43225 0 7.5V20.25C0 22.3178 1.68225 24 3.75 24H20.25C22.3178 24 24 22.3178 24 20.25C24 19.7322 23.5803 19.3125 23.0625 19.3125ZM9.65972 2.8125C9.65972 2.29556 10.0803 1.875 10.5972 1.875H13.4028C13.9197 1.875 14.3403 2.29556 14.3403 2.8125V3.75H9.65972V2.8125ZM1.875 7.5C1.875 6.46613 2.71613 5.625 3.75 5.625H20.25C21.2839 5.625 22.125 6.46613 22.125 7.5V8.58384C22.125 9.04252 22.125 9.43917 20.9729 10.316L17.5984 12.4688L16.7625 11.9779C16.7583 11.9754 16.754 11.9729 16.7497 11.9705C15.322 11.1621 13.7023 10.7356 12.0621 10.7356C12.0451 10.7356 12.0279 10.7356 12.0109 10.7357C10.3551 10.7447 8.72306 11.1884 7.29061 12.0189L6.44513 12.4966L3.02714 10.316C1.87505 9.43917 1.875 9.04252 1.875 8.58384V7.5Z" fill="#197CDD"/>
</svg>
