<svg width="21" height="24" viewBox="0 0 21 24" fill="none" xmlns="http://www.w3.org/2000/svg">
<path d="M15.7217 8.98302C14.058 7.37235 11.8579 6.4678 9.50937 6.42398C9.09898 5.35724 8.04074 4.59501 6.80188 4.59375C6.80082 4.59375 6.7998 4.59375 6.79874 4.59375C6.44265 4.59375 6.10156 4.65703 5.78621 4.77196V2.90625C5.78621 2.38847 5.35447 1.96875 4.82185 1.96875H3.85556L3.85744 0.939191C3.85845 0.421458 3.42743 0.000943445 2.89482 5.94734e-06C2.36331 -0.00182217 1.92978 0.418036 1.92872 0.935817L1.92679 1.96875H0.964361C0.431744 1.96875 0 2.38847 0 2.90625V13.684C0 14.2017 0.431744 14.6215 0.964361 14.6215H1.92732L1.92559 15.5608C1.92457 16.0785 2.3556 16.499 2.88821 16.5C2.88884 16.5 2.88937 16.5 2.89 16.5C3.42174 16.5 3.85334 16.0813 3.85431 15.5642L3.85609 14.6215H4.8218C5.35442 14.6215 5.78616 14.2017 5.78616 13.684V10.0407C6.10059 10.1552 6.44063 10.2184 6.79566 10.2188C6.79672 10.2188 6.79773 10.2188 6.79879 10.2188C8.07233 10.2188 9.15588 9.41408 9.54114 8.30019C13.3656 8.40866 16.4423 11.4564 16.4423 15.1875C16.4423 15.7053 16.8741 16.125 17.4067 16.125C17.9393 16.125 18.3711 15.7053 18.3711 15.1875C18.3711 12.8405 17.4301 10.6371 15.7217 8.98302ZM3.85744 12.7465H1.92872V3.84375H3.85744V12.7465ZM6.79874 8.34374C6.79903 8.34374 6.7984 8.34374 6.79874 8.34374C6.26699 8.34317 5.83385 7.92219 5.83438 7.40526C5.83496 6.88865 6.26743 6.46874 6.79874 6.46874C6.79845 6.46874 6.79908 6.46874 6.79874 6.46874C7.33049 6.4693 7.76363 6.89029 7.7631 7.40722C7.76252 7.92388 7.33006 8.34378 6.79874 8.34374Z" fill="#197CDD"/>
<path d="M19.4801 18.375L2.16982 18.3766C1.6372 18.3766 1.20545 18.7963 1.20545 19.3141C1.20545 19.8319 1.6372 20.2516 2.16982 20.2516H5.20755V22.125H2.16982C1.6372 22.125 1.20545 22.5447 1.20545 23.0625C1.20545 23.5803 1.6372 24 2.16982 24H12.609C14.1822 24 15.73 23.6003 17.0849 22.8441C18.395 22.113 19.5074 21.0613 20.302 19.8029C20.485 19.5131 20.4921 19.1496 20.3208 18.8531C20.15 18.5578 19.8286 18.375 19.4801 18.375ZM12.609 22.125H7.13627V20.2516H17.467C16.1688 21.446 14.4496 22.125 12.609 22.125Z" fill="#197CDD"/>
</svg>
