<svg width="23" height="24" viewBox="0 0 23 24" fill="none" xmlns="http://www.w3.org/2000/svg">
<path d="M15.207 24H20.9632C21.4797 24 21.9225 23.6006 21.984 23.0763C22.8696 15.3374 20.914 11.6801 20.2744 10.7315L22.1193 2.38096C22.1808 2.10636 22.1316 1.83175 21.984 1.59459C21.8364 1.35743 21.6027 1.19516 21.3444 1.13275C14.6412 -0.377584 7.56906 -0.377584 0.865859 1.13275C0.595271 1.19516 0.373881 1.35743 0.226288 1.59459C0.0786944 1.83175 0.0294966 2.10636 0.0909939 2.38096L1.93591 10.7315C1.29634 11.6801 -0.659273 15.3374 0.226288 23.0763C0.287785 23.6006 0.730565 24 1.24714 24H7.24927H15.207ZM6.30222 19.5439C5.83484 18.8324 5.44126 18.046 5.10917 17.2347C9.75836 17.0974 12.6487 15.5371 14.0878 14.4761C14.6166 15.2625 15.5391 16.2361 17.1503 17.0599C16.8059 17.9337 16.3878 18.77 15.8958 19.5314C14.506 21.6658 12.7594 22.8891 11.099 22.8891C9.43858 22.8891 7.69205 21.6783 6.30222 19.5439ZM17.9867 11.3681C18.0605 11.8674 18.0605 12.3043 18.0605 12.6038C18.0605 13.3777 17.9621 14.214 17.7653 15.0503C15.8589 13.9644 15.453 12.7411 15.4161 12.6038C15.3423 12.2169 15.0594 11.9298 14.6904 11.8174C14.3092 11.7176 13.9156 11.8549 13.6573 12.142C13.5466 12.2668 10.853 15.1751 4.445 15.1751C4.23591 14.2889 4.12521 13.4152 4.12521 12.6038C4.12521 12.3043 4.12521 11.8674 4.19901 11.3681C8.73751 10.4819 13.4605 10.4819 17.9867 11.3681ZM20.0407 21.9155H16.7076C17.015 21.541 17.3225 21.1291 17.6054 20.6922C18.6509 19.082 19.4134 17.2097 19.807 15.3499C20.1145 16.9226 20.2867 19.082 20.0407 21.9155ZM19.8808 2.95514L18.4787 9.34599C16.0557 8.87167 13.5835 8.62203 11.099 8.62203C8.62681 8.62203 6.14232 8.85919 3.71933 9.34599L2.31719 2.95514C8.08564 1.78182 14.1124 1.78182 19.8808 2.95514ZM2.39099 15.3499C2.78457 17.2097 3.54714 19.082 4.59259 20.6922C4.87548 21.1291 5.18297 21.541 5.49045 21.9155H2.1696C1.91131 19.082 2.08351 16.9351 2.39099 15.3499Z" fill="#197CDD"/>
</svg>
