<svg width="23" height="24" viewBox="0 0 23 24" fill="none" xmlns="http://www.w3.org/2000/svg">
<path d="M14.8785 6.42188C15.4002 6.42188 15.8231 6.00214 15.8231 5.48438C15.8231 4.96661 15.4002 4.54688 14.8785 4.54688C14.3567 4.54688 13.9338 4.96661 13.9338 5.48438C13.9338 6.00214 14.3567 6.42188 14.8785 6.42188Z" fill="#197CDD"/>
<path d="M15.0674 19.3594C15.5891 19.3594 16.0121 18.9396 16.0121 18.4219C16.0121 17.9041 15.5891 17.4844 15.0674 17.4844C14.5457 17.4844 14.1227 17.9041 14.1227 18.4219C14.1227 18.9396 14.5457 19.3594 15.0674 19.3594Z" fill="#197CDD"/>
<path d="M21.8108 6.52411C21.4492 5.74308 20.5287 4.78153 18.1967 4.63617C17.6752 4.60336 17.2274 4.99631 17.1947 5.51306C17.162 6.02981 17.5576 6.47503 18.0783 6.50747C19.1552 6.57464 19.8899 6.86597 20.094 7.30692C20.2103 7.55798 20.2717 7.73189 20.2638 7.93177C20.2403 8.52183 19.7011 9.46158 18.6592 10.7314C17.2676 9.46664 15.5493 8.27742 13.6218 7.25053C11.7042 6.22889 9.80953 5.57597 8.33204 5.11819C8.40525 4.92281 8.48181 4.73269 8.56178 4.54837C9.2877 2.87433 10.2189 1.875 11.0527 1.875C11.7433 1.875 12.3497 2.54503 12.7368 3.10711C13.0312 3.53461 13.619 3.64425 14.0497 3.35217C14.4805 3.06005 14.591 2.47669 14.2967 2.04919C13.1303 0.3555 11.8888 0 11.0527 0C9.39194 0 7.89097 1.35202 6.82629 3.807C6.7042 4.08848 6.58918 4.38136 6.48126 4.68422C4.69878 4.4153 3.29818 4.60144 3.22303 4.61189C3.21689 4.61273 3.21075 4.61367 3.20461 4.61461C1.50431 4.88405 0.740415 5.69306 0.398968 6.32428C0.171777 6.74423 0.0534582 7.19883 0.0473179 7.6755C0.0386271 8.34755 0.246547 9.09572 0.665173 9.89934C0.904786 10.3593 1.4747 10.5393 1.9382 10.3016C2.40165 10.0638 2.58307 9.49814 2.3435 9.0382C2.07267 8.51836 1.93192 8.05542 1.93654 7.6995C1.93876 7.5248 1.98038 7.36509 2.06365 7.21116C2.31436 6.74761 2.97473 6.5513 3.4898 6.46819C3.58833 6.456 4.62316 6.33713 5.94748 6.50405C5.54916 8.18184 5.33742 10.0589 5.33742 12C5.33742 14.0021 5.65629 15.8652 5.98961 17.3777C5.79406 17.4051 5.6014 17.4279 5.41233 17.4456C3.64284 17.6111 2.329 17.3017 1.98354 16.6378C1.92185 16.5193 1.89106 16.3644 1.88941 16.1641C1.88719 15.8981 1.94155 15.6188 2.05094 15.3343C2.23695 14.8505 1.99261 14.3087 1.50516 14.1241C1.01781 13.9396 0.471801 14.182 0.285797 14.6658C0.0920476 15.1696 -0.0040716 15.6789 0.000132134 16.1797C0.00433587 16.6809 0.103998 17.1123 0.30488 17.4982C0.939502 18.7177 2.41365 19.365 4.50867 19.365C4.85252 19.365 5.21334 19.3475 5.58969 19.3123C5.87606 19.2855 6.16909 19.2487 6.46756 19.2025C7.02784 20.8755 7.783 21.9231 7.89022 22.0669C9.03519 23.6642 10.2416 24 11.0527 24C11.8888 24 13.1303 23.6445 14.2966 21.9509C14.591 21.5234 14.4805 20.94 14.0497 20.6479C13.619 20.3558 13.0312 20.4655 12.7368 20.8929C12.3497 21.455 11.7433 22.125 11.0527 22.125C10.3875 22.125 9.80032 21.4987 9.42491 20.9733C9.4191 20.9652 9.4132 20.9573 9.4072 20.9493C9.39983 20.9397 8.80696 20.1525 8.32859 18.8106C10.0062 18.3699 11.7883 17.6796 13.5407 16.7813C15.3983 15.8293 17.1174 14.6932 18.5124 13.4959C18.5543 13.4598 18.5915 13.4204 18.6255 13.3792C19.5915 14.4987 20.1311 15.5447 20.1213 16.3005C20.1182 16.5421 20.0937 16.6927 20.0417 16.7888C19.7888 17.2562 19.1196 17.4519 18.6026 17.5339C18.0874 17.6155 17.7365 18.0961 17.8187 18.6075C17.8929 19.0687 18.2942 19.3973 18.7504 19.3973C18.7999 19.3973 18.8501 19.3934 18.9005 19.3854C20.6009 19.116 21.3649 18.307 21.7063 17.6757C21.9667 17.1943 22.0057 16.7007 22.0106 16.3245C22.0268 15.0662 21.33 13.6063 19.99 12.0784C21.4534 10.3273 22.1088 9.08138 22.1516 8.00583C22.1757 7.40245 22.002 6.93708 21.8108 6.52411ZM7.78971 6.91439C8.04949 6.99502 8.32283 7.0822 8.60674 7.17637C8.58979 7.18505 8.57273 7.19348 8.55578 7.20216C8.23951 7.36425 7.92701 7.53197 7.61924 7.70428C7.67106 7.43569 7.72807 7.17234 7.78971 6.91439ZM7.84048 17.0007C7.7916 16.7792 7.74299 16.5499 7.69581 16.3136C7.95545 16.4624 8.21806 16.6081 8.48356 16.7496C8.51199 16.7647 8.54052 16.7796 8.569 16.7946C8.32377 16.869 8.0808 16.9377 7.84048 17.0007ZM14.7341 13.9401C14.0785 14.3547 13.388 14.7493 12.6738 15.1154C12.1199 15.3993 11.5641 15.6606 11.0115 15.8978C10.4653 15.653 9.91604 15.3846 9.37716 15.0975C8.66682 14.7191 7.97713 14.3107 7.32465 13.8831C7.26358 13.2738 7.22674 12.6431 7.22674 12C7.22674 11.349 7.25234 10.7075 7.30174 10.081C7.97604 9.65208 8.68817 9.2445 9.42274 8.86805C9.96105 8.59214 10.5084 8.33452 11.0536 8.1C11.6041 8.33761 12.1663 8.60311 12.7282 8.90241C13.4249 9.27356 14.0982 9.67261 14.7367 10.0906C14.7888 10.7001 14.8313 11.3435 14.8313 12C14.8313 12.6675 14.7874 13.3216 14.7341 13.9401ZM17.2765 12.0777C17.0945 12.2339 16.9057 12.3888 16.7119 12.5426C16.7171 12.3636 16.7206 12.183 16.7206 12C16.7206 11.8447 16.7179 11.6912 16.714 11.5387C16.92 11.7083 17.1192 11.8792 17.3109 12.051C17.2995 12.0599 17.2876 12.0681 17.2765 12.0777Z" fill="#197CDD"/>
<path d="M3.02296 13.2656C3.54468 13.2656 3.96762 12.8459 3.96762 12.3281C3.96762 11.8104 3.54468 11.3906 3.02296 11.3906C2.50124 11.3906 2.0783 11.8104 2.0783 12.3281C2.0783 12.8459 2.50124 13.2656 3.02296 13.2656Z" fill="#197CDD"/>
</svg>
